<svg version="1" xmlns="http://www.w3.org/2000/svg" width="666.667" height="666.667" viewBox="0 0 500.000000 500.000000"><path d="M215 1.5c-36.7 5.4-71.9 18.6-102 38.3-29.2 19.1-56.5 46.8-75.5 76.7-7.1 11.2-18.2 33.8-23 46.9-4.8 13-10.9 37.2-12.9 51.3-2.2 15.4-2.2 55.2 0 70.6 6 41.5 23 82.4 48.8 116.7 9.1 12.3 29.4 33 42.1 43.3 35.8 28.9 79.5 47.5 125.8 53.7 10.1 1.3 52.3 1.3 62.4 0 35.7-4.8 70.5-17.1 100.4-35.6 29.6-18.4 58.8-46.8 77.8-75.9 8.6-13.2 19.7-35.2 25.1-49.5 5.2-14.1 11.2-37.4 13.6-53.5 2.5-16.8 2.5-52.2 0-69-2.3-15.4-8.3-39.2-13.1-52-8.4-22.6-22.9-48.9-37.3-67.4-9.1-11.8-28.7-31.7-40.7-41.4-35.3-28.5-77.5-46.8-123-53.2-12.6-1.8-56.3-1.8-68.5 0zm101.2 97c6.8 4.8 8.8 9.8 8.8 22.2V131h-14.7l-.5-7.5c-.4-6.5-.9-8.1-3.5-11.3-5.6-6.9-3.5-6.7-58.3-7l-49.5-.2-4.4 2.2c-6.6 3.4-8.4 6.4-9.1 15.6l-.5 7.7-7.7.3-7.8.3v-9.2c0-5 .6-11 1.2-13.3 1.5-4.9 7.1-10.8 11.8-12.3 2.5-.8 22.5-1.1 66.7-1l63.1.2 4.4 3zm84.4 43c2.9.8 6.2 2.8 8.1 4.7 6.1 6.3 6.3 7.5 6.3 42.7v31.9l-2.8 5.3c-2.2 4.3-3.8 5.9-8.1 8.1l-5.3 2.8H263v-3.9c0-4.3-2.9-9.2-7.3-12.5-4-2.9-13.4-2.9-17.3 0-4.4 3.3-6.6 6.8-7.1 11.8l-.6 4.6h-67.6c-63.2 0-67.9-.2-71.6-1.9-5.1-2.3-10.1-7.9-11.4-12.8-1.5-5.1-1.4-62.5 0-67.7 1.4-5 8.4-12 13.5-13.4 2.6-.6 53.8-1 153-1.1 128.5-.1 149.7.1 154 1.4zm-147.3 90.6c1.4 1.7 1.7 4.1 1.7 12.1 0 9.2-.2 10.1-2.5 12.3-3.1 3.2-7.4 3.2-10.9 0-2.5-2.3-2.6-2.9-2.6-12 0-9.4.1-9.7 3-12.7 2.6-2.5 3.6-2.9 6.3-2.4 1.8.3 4 1.6 5 2.7zm151.8 86.2c.5 42.2.4 68.6-.2 71-1.3 4.8-6.3 10.5-11.4 12.8-3.8 1.8-10.8 1.9-145.5 1.9-94.3 0-142.7-.4-145.2-1-2.1-.6-5.1-2.2-6.8-3.7-6.3-5.3-6-1.9-6.9-77.1-.4-37.8-.7-68.8-.6-69 .1-.1 2.4.8 5.1 2.2l4.9 2.4L156 256c31.6-1.1 61.4-1.9 66.3-1.9l8.7-.1v3.6c0 4.7 3.6 11 7.8 13.6 4.1 2.5 11.5 2.8 15.9.5 4.7-2.5 8.3-8.3 8.3-13.4 0-2.3.3-4.4.8-4.6.4-.2 10.4 0 22.2.4 11.8.4 38.4 1.2 59 1.8 20.6.6 40.3 1.3 43.8 1.6 6.2.4 6.4.4 10.5-3.5 2.3-2.1 4.4-3.6 4.6-3.4.3.3.8 30.7 1.2 67.7z"/></svg>