<?xml version="1.0" standalone="no"?>
<!DOCTYPE svg PUBLIC "-//W3C//DTD SVG 20010904//EN"
 "http://www.w3.org/TR/2001/REC-SVG-20010904/DTD/svg10.dtd">
<svg version="1.0" xmlns="http://www.w3.org/2000/svg"
 width="500.000000pt" height="500.000000pt" viewBox="0 0 500.000000 500.000000"
 preserveAspectRatio="xMidYMid meet">
<metadata>
Created by potrace 1.14, written by Peter Selinger 2001-2017
</metadata>
<g transform="translate(0.000000,500.000000) scale(0.100000,-0.100000)"
fill="#000000" stroke="none">
<path d="M2150 4985 c-367 -54 -719 -186 -1020 -383 -292 -191 -565 -468 -755
-767 -71 -112 -182 -338 -230 -469 -48 -130 -109 -372 -129 -513 -22 -154 -22
-552 0 -706 60 -415 230 -824 488 -1167 91 -123 294 -330 421 -433 358 -289
795 -475 1258 -537 101 -13 523 -13 624 0 357 48 705 171 1004 356 296 184
588 468 778 759 86 132 197 352 251 495 52 141 112 374 136 535 25 168 25 522
0 690 -23 154 -83 392 -131 520 -84 226 -229 489 -373 674 -91 118 -287 317
-407 414 -353 285 -775 468 -1230 532 -126 18 -563 18 -685 0z m1012 -970 c68
-48 88 -98 88 -222 l0 -103 -74 0 -73 0 -5 75 c-4 65 -9 81 -35 113 -56 69
-35 67 -583 70 l-495 2 -44 -22 c-66 -34 -84 -64 -91 -156 l-5 -77 -77 -3 -78
-3 0 92 c0 50 6 110 12 133 15 49 71 108 118 123 25 8 225 11 667 10 l631 -2
44 -30z m844 -430 c29 -8 62 -28 81 -47 61 -63 63 -75 63 -427 l0 -319 -28
-53 c-22 -43 -38 -59 -81 -81 l-53 -28 -679 0 -679 0 0 39 c0 43 -29 92 -73
125 -40 29 -134 29 -173 0 -44 -33 -66 -68 -71 -118 l-6 -46 -676 0 c-632 0
-679 2 -716 19 -51 23 -101 79 -114 128 -15 51 -14 625 0 677 14 50 84 120
135 134 26 6 538 10 1530 11 1285 1 1497 -1 1540 -14z m-1473 -906 c14 -17 17
-41 17 -121 0 -92 -2 -101 -25 -123 -31 -32 -74 -32 -109 0 -25 23 -26 29 -26
120 0 94 1 97 30 127 26 25 36 29 63 24 18 -3 40 -16 50 -27z m1518 -862 c5
-422 4 -686 -2 -710 -13 -48 -63 -105 -114 -128 -38 -18 -108 -19 -1455 -19
-943 0 -1427 4 -1452 10 -21 6 -51 22 -68 37 -63 53 -60 19 -69 771 -4 378 -7
688 -6 690 1 1 24 -8 51 -22 l49 -24 575 18 c316 11 614 19 663 19 l87 1 0
-36 c0 -47 36 -110 78 -136 41 -25 115 -28 159 -5 47 25 83 83 83 134 0 23 3
44 8 46 4 2 104 0 222 -4 118 -4 384 -12 590 -18 206 -6 403 -13 438 -16 62
-4 64 -4 105 35 23 21 44 36 46 34 3 -3 8 -307 12 -677z"/>
</g>
</svg>
