<svg version="1" xmlns="http://www.w3.org/2000/svg" width="533.333" height="533.333" viewBox="0 0 400.000000 400.000000"><path d="M24.7 26.7c-.2.4-.2 78.9.2 174.3l.6 173.5 88 .3c75 .2 90.1 0 101.9-1.3 106.4-12.1 165.9-74.6 166-174.5 0-31.6-4.7-53.9-16.9-79.6-21.1-44.5-61.7-74.2-118.5-86.8-28.1-6.2-24.1-6-126.7-6.3-51.8-.2-94.3 0-94.6.4zM193 112.5c42.4 6.4 63.4 29.3 68 74.2 1.7 16.3-.8 40.6-5.5 54.9-5.5 16.1-16.8 29.7-31 37.1-16.3 8.4-33.2 11.6-61.8 11.7-15.6.1-18.9-.1-19.7-1.4-.6-.9-.9-34.9-.7-89.5l.2-88 6-.7c8.7-.9 33.5 0 44.5 1.7z"/></svg>