<?xml version="1.0" standalone="no"?>
<!DOCTYPE svg PUBLIC "-//W3C//DTD SVG 20010904//EN"
 "http://www.w3.org/TR/2001/REC-SVG-20010904/DTD/svg10.dtd">
<svg version="1.0" xmlns="http://www.w3.org/2000/svg"
 width="456.000000pt" height="456.000000pt" viewBox="0 0 456.000000 456.000000"
 preserveAspectRatio="xMidYMid meet">
<metadata>
Created by potrace 1.11, written by Peter Selinger 2001-2013
</metadata>
<g transform="translate(0.000000,456.000000) scale(0.100000,-0.100000)"
fill="#000000" stroke="none">
<path d="M310 3639 l0 -401 150 7 150 7 0 -957 0 -957 -150 7 -150 7 0 -401 0
-401 950 0 950 0 0 394 0 394 -135 7 -135 7 0 309 0 309 178 0 177 0 310 -708
311 -707 652 -3 652 -2 0 395 0 395 -117 0 -118 1 -248 420 c-137 231 -247
422 -245 423 1 2 31 18 65 36 285 150 460 500 440 883 -25 484 -359 796 -958
896 -228 38 -326 41 -1541 41 l-1188 0 0 -401z m2399 331 c151 -14 395 -47
446 -61 139 -38 280 -93 360 -138 141 -81 206 -141 306 -281 65 -91 137 -371
125 -489 -31 -338 -178 -601 -402 -722 -78 -42 -114 -76 -114 -108 0 -22 23
-64 98 -177 6 -10 17 -30 22 -43 6 -13 23 -43 38 -65 16 -23 31 -48 35 -56 4
-8 16 -28 27 -45 11 -16 23 -37 26 -45 4 -8 39 -68 78 -133 88 -147 105 -175
134 -229 13 -24 38 -58 55 -76 31 -32 31 -32 129 -32 l98 0 0 -330 0 -330
-602 2 -602 3 -65 146 c-36 81 -72 162 -80 180 -8 19 -22 52 -32 74 -9 22 -32
73 -49 114 -17 40 -47 106 -66 147 -19 41 -34 76 -34 78 0 3 -16 39 -35 80
-19 42 -35 78 -35 80 0 3 -16 40 -36 83 -20 43 -57 125 -81 183 -73 169 -85
194 -111 223 l-26 27 -197 0 -198 0 -20 -26 c-20 -26 -21 -38 -21 -355 l0
-328 26 -20 c23 -18 41 -21 120 -21 51 0 99 -3 108 -6 14 -5 16 -44 16 -335
l0 -329 -885 0 -885 0 0 335 0 335 134 0 c128 0 136 1 150 22 14 20 16 131 16
992 l0 970 -22 23 c-18 19 -32 23 -77 23 -31 0 -76 -5 -100 -11 -24 -5 -57 -7
-73 -4 l-28 7 0 334 0 334 1083 3 c595 1 1093 3 1106 5 14 1 77 -3 140 -8z"/>
<path d="M415 3928 c-3 -7 -4 -144 -3 -303 l3 -290 123 4 c117 3 125 2 148
-20 l24 -22 0 -1007 0 -1007 -23 -21 c-21 -20 -34 -22 -150 -22 l-127 0 2
-297 3 -298 850 0 850 0 3 290 c2 264 1 291 -15 303 -11 7 -52 12 -113 12
-151 0 -140 -31 -140 406 l0 361 23 21 c22 21 31 22 248 22 l225 0 32 -33 c18
-18 32 -37 32 -42 0 -4 14 -37 30 -72 17 -34 30 -65 30 -67 0 -3 13 -34 30
-69 17 -36 30 -67 30 -70 0 -3 18 -45 40 -94 23 -48 45 -97 50 -108 4 -11 20
-46 34 -77 14 -31 26 -59 26 -62 0 -3 13 -34 29 -68 16 -35 46 -101 66 -148
20 -47 52 -118 71 -158 19 -40 34 -76 34 -79 0 -3 11 -29 24 -57 13 -28 36
-80 51 -116 46 -111 -21 -101 619 -98 l561 3 0 295 0 295 -95 3 c-91 3 -96 4
-128 35 -19 18 -38 41 -43 52 -5 11 -18 34 -29 50 -11 17 -24 40 -29 52 -6 12
-23 41 -38 65 -40 62 -51 81 -62 103 -5 11 -21 37 -35 58 -14 21 -26 41 -26
45 0 4 -15 30 -33 58 -19 28 -37 57 -40 65 -4 8 -16 28 -27 44 -11 17 -26 44
-34 60 -9 17 -21 39 -28 50 -77 119 -88 143 -88 197 0 53 2 57 41 89 43 35 69
51 109 69 44 20 129 101 173 163 67 98 65 95 117 212 18 41 43 132 52 190 5
33 11 78 15 99 7 47 -13 200 -34 271 -32 105 -73 187 -134 267 -91 121 -258
228 -464 296 -134 44 -161 51 -270 68 -55 9 -122 20 -150 26 -32 7 -479 12
-1243 15 -980 3 -1193 2 -1197 -9z m1857 -558 c140 -14 242 -43 286 -81 146
-128 152 -142 152 -328 0 -192 -10 -220 -109 -320 -115 -115 -177 -131 -505
-131 -191 0 -201 1 -223 22 l-23 21 0 387 0 387 23 20 c12 12 33 23 47 26 46
8 254 7 352 -3z"/>
<path d="M1902 3315 c-22 -27 -22 -33 -22 -380 l0 -352 24 -22 c25 -23 27 -23
223 -19 294 7 364 31 477 160 52 60 65 103 73 243 5 87 2 107 -17 155 -22 55
-64 107 -133 162 -58 46 -172 67 -408 75 l-195 6 -22 -28z m432 -50 c42 -8
103 -28 136 -46 102 -54 140 -124 140 -255 0 -150 -56 -247 -174 -303 -81 -39
-160 -51 -343 -51 l-153 0 0 335 0 335 159 0 c98 0 189 -6 235 -15z"/>
</g>
</svg>
