<svg version="1" xmlns="http://www.w3.org/2000/svg" width="400" height="400" viewBox="0 0 300.000000 300.000000"><path d="M45.6 48.7c-.1.1-2 .5-4.2.9-2.1.3-4.2.8-4.6 1.1-.5.2-1.7.6-2.7.8-4.9.9-14 6.5-19.6 12C5.6 72.3.9 83.3.8 95.5.7 113.1 11.5 128 29.5 135c8 3.2 25.1 3.5 33.5.6 14.7-4.9 23.4-17.5 22.5-32.7-.5-7.9-3-13.3-8.4-18.2C69.5 77.9 56.3 74.5 47 77c-15.2 4.1-22.9 20-15.3 31.8 3.5 5.3 9.6 8 15.1 6.6 6.2-1.5 5.1-7-1.3-6.6-2.8.2-4.2-.4-6.5-2.7-1.7-1.6-3.1-3.7-3.1-4.5-.1-.9-.2-2.2-.3-2.9-.2-.6.4-2.7 1.1-4.6 4.9-12.4 24.6-14.5 35.8-3.7 5 4.8 6.9 10.2 5.9 17.3-1.8 13.7-12.2 22-28.5 23.1-4.5.2-9.9-.1-12.6-.7-19.6-5-32.1-21.9-29.1-39.3 1.7-10.2 5.4-16.9 13.2-24C30 59 39.1 56.1 53.8 56.5c11.6.3 12.7.5 22.8 3.6 7.3 2.2 28.7 12.5 29.2 14 .2.5.8.9 1.2.9.5 0 4.8 2.4 9.7 5.4 11.2 6.8 17.4 9.9 24.3 12.1 3 1 5.8 2 6.2 2.4.4.3 0 2.6-.8 5.1-.9 2.5-1.7 5.2-1.9 6-.2.8-1 3.5-1.8 6-1.3 3.9-4.2 15.3-6.1 24.1-.3 1.4-1.1 2.6-1.8 2.6-2 0-14 1.3-16.8 1.8-1.4.2-5.6.7-9.5 1-3.8.3-8.7.8-10.7 1.1-2 .2-6.3.6-9.5.8-5.5.4-8.9 2.5-4.1 2.7 1.3 0 12.7.1 25.5.2 12.7.1 23.4.5 23.7.8.4.3 0 3.2-.9 6.5-2 7.8-2 7.8 1.7 5.7 3.2-1.8 6.4-4.3 5.5-4.3-.3 0 .1-1.9.8-4.2l1.2-4.3 6.4-.1c3.5-.1 6.9-.2 7.4-.3 1.1-.1 17.2-9.4 18.3-10.6.8-.8-17.7.6-26.7 2-3.2.5-4.5-.3-3-2.1.6-.8.9-1.4.6-1.4-.3 0 .6-4.2 1.9-9.3 1.4-5 2.6-9.9 2.8-10.7.3-.8 1.6-5.1 3-9.5l2.5-8 8.3-.1c10.5-.1 14.2-.9 19.6-4 11.5-6.8 12.9-23 2.4-28-4.4-2-12.1-2-16.4.2-4.8 2.4-11 9.4-14.7 16.8-2.8 5.7-3.5 6.4-5.7 6-3.4-.6-11.5-3.9-17.2-6.9-5.2-2.8-6-3.2-22.1-12.9C90.8 56.7 79.7 52.3 64.4 50c-6.8-1.1-18.2-1.9-18.8-1.3zm137.5 23c4.5 3.9 1.9 11.4-5.3 15.1-4.7 2.4-16.2 3.8-18.6 2.3-1.6-1 4.7-11.6 9.1-15.4 5.4-4.6 11-5.4 14.8-2z"/><path d="M262.5 80.3c-4.8 1.6-12.8 7.4-15.2 10.9-1.9 2.8-2.8 5.5-3.2 9-.1.3-2.5 2-5.3 3.6-6.2 3.3-52.5 30.1-64.6 37.3-4.5 2.7-8.7 4.9-9.2 4.9-.6 0-1 .4-1 1 0 .5-.5 1-1.1 1-.6 0-6.3 3.1-12.7 6.9-19 11.2-50 29.1-50.5 29.1-.3 0-.8-1.2-1.2-2.7-1.2-5-5.5-11.3-10.6-15.2-18.5-14.7-48.8-5.5-60.4 18.2-3.8 7.7-4.8 12.1-4.7 20.7 0 8.1.9 12.3 4.1 19.3 11.8 25.8 41.7 34.7 68.5 20.4 16.3-8.7 26.7-25.2 36.2-58.1 2.4-8.2 4.5-15 4.7-15.1.5-.5 13.9-6.5 14.3-6.5.2 0 2.3-.9 4.7-1.9 8.8-4 16.5-7.5 26.7-11.9l10.5-4.6 31.4-.1c20.5 0 31.7.3 32.2 1 7.4 9.2 8.4 9.9 14.8 9.6 5.2-.2 9.9-3 12.4-7.4 1.6-2.7 2.1-2.9 5.8-2.4 2.5.3 5.2 1.6 6.8 3.1 3.4 3.3 4.1 3.3 3.5-.1-1-5.6-5.7-9.7-12.2-10.6-1.4-.2-3.2-1.9-4.7-4.3-3-5-9.7-7.7-15.6-6.1-4.3 1-9.9 6.5-9.9 9.6 0 3.2-1.1 3.2-15.5.7-2.8-.4-10.8-1.4-18-2.1-1.6-.2-5.2-.6-8-1-2.7-.5-5.6-.8-6.3-.8-1.3 0 5.6-6.6 7-6.7.4 0 1.3-.6 2-1.3.7-.7 3.8-3.2 6.8-5.4 22.8-17.1 22.7-17.1 24.5-16.1 2.8 1.6 11.6.4 16.9-2.3 16.4-8.1 19.2-24.1 4.3-24.5-2.8-.1-6.5.3-8.2.9zm9.9 5.3c2.3.9 2 3.2-.9 7-4.7 6.2-18.6 10.9-20.2 6.8-2.3-6 13.8-16.6 21.1-13.8zm4 50.7c4 3.5 4.2 8.8.5 12.8-2.6 2.8-3.4 3.1-7 2.6-7.1-.9-10.1-6-7.4-12.3 2.4-5.8 9.1-7.2 13.9-3.1zm-82.6-.1c2.2 2.2 1.4 6.4-1.3 7.6-2.1 1-2.8.9-4.5-.8-2.4-2.4-2.5-3.8-.3-6.2 1.9-2.1 4.4-2.3 6.1-.6zM79.1 168.8c12.7 6.3 17.1 19.6 10.6 32.3-3.6 7-8.7 10.3-17.4 11.3-3.5.5-9.8-2.9-12.8-6.8-5.2-6.8-3.5-18.8 3-21.8 3.2-1.4 3.9-3.7 1.9-5.9-1.2-1.4-2.1-1.5-4.3-.8-12.6 4.4-14.4 26.7-3 36.3 16.3 13.8 39.8 2.3 42.5-20.7.3-2.9.9-5.5 1.3-5.8.3-.3 3.1-1.6 6.1-2.9 3-1.2 8.9-3.7 13.1-5.5l7.6-3.3-2.4 8.3c-6.8 24.2-14.9 40-25.2 49.2-3.9 3.5-16.5 10.6-17.3 9.8-.3-.3-1.8-.1-3.4.5-4 1.6-16 1.4-21.9-.3-25.7-7.2-36.2-39.6-20.1-61.6 4.8-6.6 14.1-12.7 22.1-14.5 5.5-1.2 14.9-.2 19.6 2.2z"/></svg>